# File created by Blade
# Date/Time:  Tue Jan 27 17:09:01 2015
#---------------------------------------------------------
:version 1.10
:name HOM
:units
  mass 1.0
  length 1.000000
  angle deg
:documentation
     Acclaim Skeleton File
:root
   axis xyz
   order TX TY TZ RX RY RZ
   position 0.000000 0.000000 0.000000
   orientation 0 0 0
:bonedata
   begin
      id 1
      name Spine_dum
      direction 0.000000 1.000000 0.000000
      length 7.539951
      axis 0.0 0.0 0.0 xyz
   end
   begin
      id 2
      name LeftUpLeg_dum
      direction 1.000000 0.000000 0.000000
      length 3.345476
      axis 0.0 0.0 0.0 xyz
   end
   begin
      id 3
      name RightUpLeg_dum
      direction -1.000000 0.000000 0.000000
      length 3.345476
      axis 0.0 0.0 0.0 xyz
   end
   begin
      id 4
      name Spine
      direction 0.000000 1.000000 0.000000
      length 0.000000
      axis 0.0 0.0 0.0 xyz
      dof rx ry rz
   end
   begin
      id 5
      name Spine_dum1
      direction 0.000000 1.000000 0.000000
      length 15.093809
      axis 0.0 0.0 0.0 xyz
   end
   begin
      id 6
      name Spine_dum2
      direction 0.000000 1.000000 0.000000
      length 9.738928
      axis 0.0 0.0 0.0 xyz
   end
   begin
      id 7
      name Spine_dum3
      direction 0.000000 1.000000 0.000000
      length 9.738928
      axis 0.0 0.0 0.0 xyz
   end
   begin
      id 8
      name Head
      direction 0.000000 1.000000 0.000000
      length 4.527550
      axis 0.0 0.0 0.0 xyz
      dof rx ry rz
   end
   begin
      id 9
      name LeftShoulder
      direction 1.000000 0.000000 0.000000
      length 7.084015
      axis 0.0 0.0 -90.0 xyz
      dof rx ry rz
   end
   begin
      id 10
      name LeftArm
      direction 1.000000 0.000000 0.000000
      length 10.259319
      axis 0.0 0.0 -90.0 xyz
      dof rx ry rz
   end
   begin
      id 11
      name LeftForeArm
      direction 1.000000 0.000000 0.000000
      length 9.896984
      axis 0.0 0.0 -90.0 xyz
      dof ry rz rx
   end
   begin
      id 12
      name LeftHand
      direction 0.000000 0.000000 0.000000
      length 0.000000
      axis 0.0 0.0 -90.0 xyz
      dof rx ry rz
   end
   begin
      id 13
      name LeftHand_dum1
      direction 0.000000 0.000000 0.000000
      length 0.000000
      axis 0.0 0.0 -90.0 xyz
   end
   begin
      id 14
      name LeftHand_dum2
      direction 1.000000 0.000000 0.000000
      length 3.937000
      axis 0.0 0.0 -90.0 xyz
   end
   begin
      id 15
      name LeftHandThumb1
      direction 0.000000 0.000000 1.000000
      length 3.937000
      axis 0.0 0.0 -90.0 xyz
      dof rx rz ry
   end
   begin
      id 16
      name RightShoulder
      direction -1.000000 0.000000 0.000000
      length 7.084015
      axis 0.0 0.0 90.0 xyz
      dof rx ry rz
   end
   begin
      id 17
      name RightArm
      direction -1.000000 0.000000 0.000000
      length 10.259319
      axis 0.0 0.0 90.0 xyz
      dof rx ry rz
   end
   begin
      id 18
      name RightForeArm
      direction -1.000000 0.000000 0.000000
      length 9.896984
      axis 0.0 0.0 90.0 xyz
      dof ry rz rx
   end
   begin
      id 19
      name RightHand
      direction 0.000000 0.000000 0.000000
      length 0.000000
      axis 0.0 0.0 90.0 xyz
      dof rx ry rz
   end
   begin
      id 20
      name RightHand_dum1
      direction 0.000000 0.000000 0.000000
      length 0.000000
      axis 0.0 0.0 90.0 xyz
   end
   begin
      id 21
      name RightHand_dum2
      direction -1.000000 0.000000 0.000000
      length 3.937000
      axis 0.0 0.0 90.0 xyz
   end
   begin
      id 22
      name RightHandThumb1
      direction 0.000000 0.000000 1.000000
      length 3.937000
      axis 0.0 0.0 90.0 xyz
      dof rx rz ry
   end
   begin
      id 23
      name LeftUpLeg
      direction 0.000000 -1.000000 0.000000
      length 19.114733
      axis 0.0 0.0 0.0 xyz
      dof rx ry rz
   end
   begin
      id 24
      name LeftLeg
      direction 0.000000 -1.000000 0.000000
      length 16.045604
      axis 0.0 0.0 0.0 xyz
      dof rx ry rz
   end
   begin
      id 25
      name LeftFoot
      direction 0.000000 -0.258819 0.965926
      length 5.543155
      axis 15.0 0.0 0.0 xyz
      dof rx ry rz
   end
   begin
      id 26
      name LeftToeBase
      direction 0.000000 0.000000 1.000000
      length 2.952750
      axis 0.0 0.0 0.0 xyz
      dof rx ry rz
   end
   begin
      id 27
      name RightUpLeg
      direction 0.000000 -1.000000 0.000000
      length 19.114733
      axis 0.0 0.0 0.0 xyz
      dof rx ry rz
   end
   begin
      id 28
      name RightLeg
      direction 0.000000 -1.000000 0.000000
      length 16.045604
      axis 0.0 0.0 0.0 xyz
      dof rx ry rz
   end
   begin
      id 29
      name RightFoot
      direction 0.000000 -0.258819 0.965926
      length 5.543155
      axis 15.0 0.0 0.0 xyz
      dof rx ry rz
   end
   begin
      id 30
      name RightToeBase
      direction 0.000000 0.000000 1.000000
      length 2.952750
      axis 0.0 0.0 0.0 xyz
      dof rx ry rz
   end
:hierarchy
   begin
      root Spine_dum LeftUpLeg_dum RightUpLeg_dum
      Spine_dum Spine
      LeftUpLeg_dum LeftUpLeg
      RightUpLeg_dum RightUpLeg
      Spine Spine_dum1 Spine_dum2 Spine_dum3
      Spine_dum1 Head
      Spine_dum2 LeftShoulder
      Spine_dum3 RightShoulder
      LeftShoulder LeftArm
      LeftArm LeftForeArm
      LeftForeArm LeftHand
      LeftHand LeftHand_dum1 LeftHand_dum2
      LeftHand_dum1 LeftHandThumb1
      RightShoulder RightArm
      RightArm RightForeArm
      RightForeArm RightHand
      RightHand RightHand_dum1 RightHand_dum2
      RightHand_dum1 RightHandThumb1
      LeftUpLeg LeftLeg
      LeftLeg LeftFoot
      LeftFoot LeftToeBase
      RightUpLeg RightLeg
      RightLeg RightFoot
      RightFoot RightToeBase
   end

# File created by Blade
# Date/Time:  Tue Jan 27 17:08:52 2015
# Frame Rate: 120.000 fps
#------------------------------------------------------
:FULLY-SPECIFIED
:DEGREES
405
root 4.965019 37.205403 -1.332458 -14.336349 28.223982 -17.618990
Spine 10.730485 6.199628 19.460343
Head -2.239832 -10.499174 -0.218328
LeftShoulder -3.097790 -8.029210 5.252631
LeftArm 9.137219 3.210537 -57.720572
LeftForeArm 8.285007 -0.000000 111.272385
LeftHand -10.546439 -0.000000 25.488555
LeftHandThumb1 -26.253704 0.000000 33.147579
RightShoulder -0.759977 -15.742497 -4.163519
RightArm 18.193666 -0.719272 56.384786
RightForeArm 189.419300 -0.000000 19.014137
RightHand 3.011637 0.000000 3.386476
RightHandThumb1 -24.326973 -0.000000 -32.862282
LeftUpLeg -4.224922 1.432923 12.850806
LeftLeg 28.972394 -0.000000 -0.000000
LeftFoot -23.105995 -6.467478 -8.096468
LeftToeBase 11.909395 -0.000000 -0.000000
RightUpLeg -81.817447 -7.596530 12.660371
RightLeg 119.369917 -0.000000 -0.000000
RightFoot -2.887704 4.528338 6.804347
RightToeBase 1.966235 -0.000000 -0.000000
406
root 4.939339 37.207576 -1.307475 -14.523440 28.760149 -17.692237
Spine 10.699700 6.025853 19.428574
Head -2.219950 -10.512966 -0.230857
LeftShoulder -2.951333 -8.084221 5.214298
LeftArm 9.512722 3.563595 -57.377001
LeftForeArm 8.111412 0.000000 111.084060
LeftHand -10.424308 -0.000000 25.372052
LeftHandThumb1 -26.253704 0.000000 33.147579
RightShoulder -0.780114 -15.801642 -4.159503
RightArm 17.960123 -0.789726 56.407693
RightForeArm 188.909096 -0.000000 18.867001
RightHand 2.857414 -0.000000 3.255938
RightHandThumb1 -24.326973 -0.000000 -32.862282
LeftUpLeg -4.258614 1.141860 12.853265
LeftLeg 29.011958 -0.000000 -0.000000
LeftFoot -23.017384 -6.538365 -7.940324
LeftToeBase 11.784504 -0.000000 -0.000000
RightUpLeg -81.891310 -7.311588 12.687557
RightLeg 119.572425 -0.000000 -0.000000
RightFoot -2.871119 4.782958 6.716734
RightToeBase 1.597977 -0.000000 -0.000000
407
root 4.913481 37.210026 -1.280725 -14.727815 29.280548 -17.774413
Spine 10.699537 5.840928 19.398466
Head -2.256956 -10.512670 -0.196447
LeftShoulder -2.848860 -8.205510 5.327866
LeftArm 9.762065 3.948067 -57.353290
LeftForeArm 8.243997 -0.000000 110.888080
LeftHand -10.481106 -0.000000 25.310667
LeftHandThumb1 -26.253704 0.000000 33.147579
RightShoulder -0.861674 -15.857368 -4.115196
RightArm 17.777163 -1.084144 56.348170
RightForeArm 189.028457 -0.000000 18.740914
RightHand 2.795796 -0.000000 3.334683
RightHandThumb1 -24.326973 -0.000000 -32.862282
LeftUpLeg -4.269252 0.857061 12.862751
LeftLeg 29.037129 -0.000000 -0.000000
LeftFoot -22.930073 -6.596907 -7.829887
LeftToeBase 11.716701 -0.000000 -0.000000
RightUpLeg -81.961838 -6.996697 12.719723
RightLeg 119.803393 -0.000000 -0.000000
RightFoot -2.908816 4.991872 6.649513
RightToeBase 1.596524 -0.000000 -0.000000
408
root 4.883493 37.213184 -1.251598 -14.982694 29.809332 -17.912724
Spine 10.722737 5.645941 19.387574
Head -2.296469 -10.566743 -0.070980
LeftShoulder -2.721098 -8.333258 5.431860
LeftArm 10.055885 4.356154 -57.231327
LeftForeArm 8.204451 -0.000000 110.680742
LeftHand -10.403943 -0.000000 25.385038
LeftHandThumb1 -26.253704 0.000000 33.147579
RightShoulder -1.043386 -16.070170 -3.816003
RightArm 17.494747 -3.091944 55.153021
RightForeArm 191.092484 0.000000 19.321738
RightHand 2.953869 -0.000000 3.574430
RightHandThumb1 -24.326973 -0.000000 -32.862282
LeftUpLeg -4.269221 0.544885 12.923940
LeftLeg 29.072342 -0.000000 -0.000000
LeftFoot -22.870506 -6.668100 -7.707939
LeftToeBase 11.592522 -0.000000 -0.000000
RightUpLeg -82.016939 -6.672612 12.797747
RightLeg 120.036028 -0.000000 -0.000000
RightFoot -3.030376 5.168207 6.237459
RightToeBase 1.797567 -0.000000 -0.000000
